<svg id="Capa_1" data-name="Capa 1" xmlns="http://www.w3.org/2000/svg" xmlns:xlink="http://www.w3.org/1999/xlink" viewBox="0 0 63.71 94.83"><defs><style>.cls-1{fill:none;}.cls-2{fill:#012d4d;}.cls-3{clip-path:url(#clip-path);}.cls-4{fill:#fc9571;}.cls-5{fill:#939f88;}.cls-6{fill:#5f95a1;}.cls-7{fill:#5d95a0;}.cls-8{fill:#1c3f64;}.cls-9{fill:#3b8499;}.cls-10{fill:#fbe3a4;}.cls-11{fill:#b2b69d;}.cls-12{fill:#fff;}</style><clipPath id="clip-path" transform="translate(1241.63 -442.17)"><rect class="cls-1" x="-1248.04" y="436.9" width="70.12" height="73.74"/></clipPath></defs><rect class="cls-2" x="7.32" y="68.47" width="56.38" height="11.02" rx="2.79"/><g class="cls-3"><path class="cls-4" d="M-1212.49,442.19s0,0,0,0h-.56v-.05A2.34,2.34,0,0,1-1212.49,442.19Z" transform="translate(1241.63 -442.17)"/><path class="cls-5" d="M-1213.08,442.18v0h-.05Z" transform="translate(1241.63 -442.17)"/><path class="cls-6" d="M-1190.86,511.84c-.43-.15-1.47-.72-1.9-.88s0-2.35.12-2.74c.49-1.35,1-2.71,1.39-4.09s.81-2.85,1.14-4.29c.21-.94.43-1.89.63-2.83.17-.77.31-1.54.47-2.31a.45.45,0,0,1,.31-.37.3.3,0,0,1,.33.09,7.65,7.65,0,0,0,.55.6,18.08,18.08,0,0,1,2.29,3.06c.25.55.71,1.07,1,1.62.44,1,0,2.08.21,3.12a18.46,18.46,0,0,1,.47,6.66,4.66,4.66,0,0,1-.3,1.34.55.55,0,0,1-.73.32,4.45,4.45,0,0,1-.57-.22c-1.22-.56-2.56,1.85-3.86,1.52a8.24,8.24,0,0,0,.06,1c0,.18-1.59-.53-1.63-.54-.51-.17.45.71,0,.53Zm-26.6-.67H-1219s-.19.08-.14-.1c0,0-.06,0-.1,0a21.38,21.38,0,0,0-4-.1c-.21,0-.41,0-.61,0a.54.54,0,0,1-.58-.54,4.51,4.51,0,0,1,.16-1.37,18.38,18.38,0,0,1,2.65-6.13,16.82,16.82,0,0,1,2-2.47c.41-.44.75-.95,1.16-1.39a15.49,15.49,0,0,1,2.7-2.35c.23-.15.5-.21.72-.38a.29.29,0,0,1,.34,0,.46.46,0,0,1,.16.45c-.1.78-.22,1.55-.32,2.33-.12,1-.23,1.92-.34,2.88-.17,1.48-.27,3-.35,4.44s-.07,2.87-.05,4.31c0,.41,0,.42-.42.42Zm-1.82-10.39c-.1,0-.14,0-.18.07a6.41,6.41,0,0,0-1.21,1.23,21,21,0,0,0-3.13,6.36,5,5,0,0,0-.27,1.67.51.51,0,0,0,.71.49.71.71,0,0,1,.25,0c.72,0,1.45,0,2.18,0a2.11,2.11,0,0,0,1.15-.28.27.27,0,0,0,.06-.48,1.05,1.05,0,0,0-.62-.31,6.53,6.53,0,0,0-1.71,0l-.92.1c.16-.56.36-1.09.56-1.62.53-1.4,1.12-2.77,1.63-4.16A9.33,9.33,0,0,1-1219.28,500.78Z" transform="translate(1241.63 -442.17)"/><path class="cls-7" d="M-1232.41,482.3c-.12.24-.22.51-.36.79l.28-.1a2.78,2.78,0,0,1,1.71-.09A1,1,0,0,1-1230,484a1.47,1.47,0,0,0,0,.21h.08a.39.39,0,0,1,.26,0c.13,0,.18-.05.19-.17a34.93,34.93,0,0,1,.92-4.64,25.52,25.52,0,0,1,1.63-4.74c.47-.95,1-1.86,1.54-2.77a2,2,0,0,0,.3-.78c0-.26-.09-.38-.34-.32a1.4,1.4,0,0,0-.48.18,20.61,20.61,0,0,0-3.1,2.41,27.25,27.25,0,0,0-5.94,8.61,17.73,17.73,0,0,0-.84,2.08c0,.06,0,.18-.14.12s-.5-.27-.56-.58a2.6,2.6,0,0,1,0-.68.9.9,0,0,1,.27-.63c.09-.07,0,0-.07-.06a1.5,1.5,0,0,0-.8,2.15,4.56,4.56,0,0,1,.8,1.15.6.6,0,0,0,.6.35.5.5,0,0,0,.43-.31,10.78,10.78,0,0,1,2.23-3.2l.24-.23,0,0A.33.33,0,0,1-1232.41,482.3Z" transform="translate(1241.63 -442.17)"/><path class="cls-8" d="M-1237.1,484.37a4.56,4.56,0,0,1,.8,1.15.6.6,0,0,0,.6.35.5.5,0,0,0,.43-.31,10.78,10.78,0,0,1,2.23-3.2l.24-.23,0,0h0c.28,0,.3,0,.34.25l-.36.76.28-.1a2.78,2.78,0,0,1,1.71-.09A1,1,0,0,1-1230,484a1.47,1.47,0,0,0,0,.21,2.83,2.83,0,0,0-.92.23,4,4,0,0,0-2.09,2.89c0,.19,0,.38-.06.57a1.4,1.4,0,0,0,.71,1.53.64.64,0,0,0-.18.43c-.13.85-.12,1.7-.17,2.56a1.05,1.05,0,0,0,.09.46,4.1,4.1,0,0,1-3.08.19,5.2,5.2,0,0,1-1.53-.8,3.61,3.61,0,0,1-1.22-2.31,6.24,6.24,0,0,1,1.1-4.47.44.44,0,0,0,.09-.18C-1237.19,485-1237.14,484.7-1237.1,484.37Zm4,7.71a4.17,4.17,0,0,1-.75.08,4.81,4.81,0,0,1-2.09-.7,1.83,1.83,0,0,1-.81-.84,4.1,4.1,0,0,1,0-3.75.38.38,0,0,0,0-.41.4.4,0,0,0-.39-.17.67.67,0,0,0-.44.2,2,2,0,0,0-.41.63,4.86,4.86,0,0,0-.19,2.92,3.41,3.41,0,0,0,1.2,2,3.18,3.18,0,0,0,3.3.35A1.69,1.69,0,0,0-1233,492.08Zm-.09-3.23s0-.05,0-.06a3.63,3.63,0,0,1,1.05-3.83c.15-.13.18-.32.28-.49a.07.07,0,0,0,0-.1c-.25,0-.5-.14-.75,0a2.87,2.87,0,0,0-1.16,1.18A2.35,2.35,0,0,0-1233.14,488.85Zm-1.52-1.93a9.76,9.76,0,0,0,.1,1.42c0,.09,0,.21.13.19s.09-.14.09-.22c0-.23,0-.45,0-.68a4.67,4.67,0,0,1,1-3c.28-.37.56-.75.86-1.11,0-.06.16-.14.06-.22s-.16,0-.22.09c-.43.44-.82.91-1.21,1.38A3,3,0,0,0-1234.66,486.92Zm.27,2.2a1.64,1.64,0,0,0,.42.76,1,1,0,0,0,.75.3c.12,0,.23-.05.24-.19s-.07-.19-.17-.23A4.86,4.86,0,0,1-1234.39,489.12Z" transform="translate(1241.63 -442.17)"/><path class="cls-9" d="M-1236.59,517.51a1.41,1.41,0,0,1,.81,1.3,9.91,9.91,0,0,1,0,1.09,1.44,1.44,0,0,1-1.37,1.45c-.66.06-1.31,0-2,0-.2,0-.17-.12-.17-.24V515.9c0-.52,0-1,0-1.55,0-.16,0-.24.22-.23h1.64a1.38,1.38,0,0,1,1.53,1.31,3.85,3.85,0,0,1,0,1.22A1.28,1.28,0,0,1-1236.59,517.51Zm-1.56,1.72v.48c0,.2-.09.49.05.58s.48.06.72,0a.47.47,0,0,0,.45-.49,11.22,11.22,0,0,0,0-1.16.55.55,0,0,0-.61-.56h-.41c-.16,0-.2.06-.2.21C-1238.14,518.63-1238.15,518.93-1238.15,519.23Zm1.13-3.13h0V516c0-.65-.15-.8-.8-.8h-.11c-.17,0-.23,0-.22.21,0,.43,0,.85,0,1.27s-.1.44.46.43a.59.59,0,0,0,.67-.61C-1237,516.34-1237,516.22-1237,516.1Z" transform="translate(1241.63 -442.17)"/><path class="cls-7" d="M-1223.11,466.75l.36-.2a.15.15,0,0,1,.19,0,.14.14,0,0,1,0,.18,3.82,3.82,0,0,1-.21.46,5.88,5.88,0,0,1-.73,1.06.8.8,0,0,1-.92.27,1.44,1.44,0,0,0-1.6.39c-1.25,1.1-2.42,2.28-3.58,3.47a41.9,41.9,0,0,0-5.25,7.1,17.32,17.32,0,0,1-1,1.45c-.18.05-.21-.05-.18-.18a2.78,2.78,0,0,1,.16-.4,41.16,41.16,0,0,1,3.75-6.46,46,46,0,0,1,3.56-4.08c.65-.69,1.35-1.34,2-2a.93.93,0,0,0,.27-1.06,2.61,2.61,0,0,1-.1-.69c.09,0,.1.11.14.17.11.22.22.45.34.66a1.16,1.16,0,0,0,1.2.59,1.25,1.25,0,0,0,.7-.23Z" transform="translate(1241.63 -442.17)"/><path class="cls-9" d="M-1229.48,517.73c0-.69,0-1.38,0-2.07a1.52,1.52,0,0,1,1.1-1.54,2,2,0,0,1,1.54.12,1.51,1.51,0,0,1,.8,1.41c0,1.39,0,2.79,0,4.18a1.48,1.48,0,0,1-1.19,1.56,1.74,1.74,0,0,1-2-.67,2.07,2.07,0,0,1-.25-1v-2Zm1.14,0h0c0,.69,0,1.37,0,2.06a.57.57,0,0,0,.79.59c.25-.09.38-.29.38-.66v-4a.57.57,0,0,0-.45-.62c-.43-.09-.72.16-.73.63Z" transform="translate(1241.63 -442.17)"/><path class="cls-9" d="M-1187.88,514.12c-.46,1-.88,1.86-1.35,2.75a1,1,0,0,0,0,1c.46,1.09.87,2.2,1.32,3.31.08.19,0,.21-.15.21h-.77c-.14,0-.2,0-.24-.18l-1-2.54s0-.09-.08-.12a1.72,1.72,0,0,0-.34,1c0,.55,0,1.1,0,1.66,0,.16,0,.23-.22.22h-.75c-.14,0-.18,0-.18-.18v-6.88c0-.17.06-.21.21-.2h.71c.18,0,.23,0,.23.23,0,.86,0,1.72,0,2.58v.23c.09,0,.09-.11.12-.16.42-.88.84-1.76,1.25-2.65a.33.33,0,0,1,.38-.23Z" transform="translate(1241.63 -442.17)"/><path class="cls-9" d="M-1209.54,514.12h.61c.16,0,.23,0,.25.2.13.87.27,1.73.41,2.6l.57,3.58.12.69c0,.13,0,.2-.17.19h-.79c-.12,0-.18,0-.19-.16,0-.32-.1-.64-.14-1,0-.14-.08-.2-.24-.2a7.85,7.85,0,0,1-1,0c-.19,0-.24.08-.26.23,0,.31-.1.61-.14.92,0,.14-.08.17-.21.17h-.68c-.15,0-.18,0-.16-.19l.42-2.55c.22-1.41.45-2.81.67-4.23,0-.21.08-.33.33-.29A5.42,5.42,0,0,0-1209.54,514.12Zm0,1.43h0c0,.23-.07.47-.11.71l-.39,2.64c0,.15,0,.18.16.17s.46,0,.7,0,.2-.06.18-.21C-1209.26,517.75-1209.42,516.65-1209.59,515.55Z" transform="translate(1241.63 -442.17)"/><path class="cls-9" d="M-1200.28,517.74v2.07c0,.43.23.61.65.59a.49.49,0,0,0,.49-.45,5.27,5.27,0,0,0,0-1.05c0-.18,0-.25.24-.24a4.85,4.85,0,0,0,.66,0c.09,0,.16,0,.16.14a8,8,0,0,1-.06,1.47,1.44,1.44,0,0,1-1.47,1.17,2.21,2.21,0,0,1-.63,0,1.49,1.49,0,0,1-1.21-1.43,10.59,10.59,0,0,1,0-1.13c0-.93,0-1.86,0-2.79a3.64,3.64,0,0,1,.07-.81A1.48,1.48,0,0,1-1200,514a2.44,2.44,0,0,1,.76.05,1.49,1.49,0,0,1,1.15,1.44c0,.29,0,.59,0,.88,0,.12,0,.17-.16.16h-.73c-.14,0-.17-.06-.17-.19a5.22,5.22,0,0,0,0-.79.54.54,0,0,0-.63-.51.52.52,0,0,0-.51.57c0,.7,0,1.39,0,2.09Z" transform="translate(1241.63 -442.17)"/><path class="cls-8" d="M-1213,442.82c-.08,0,0-.06,0-.09a.83.83,0,0,1,1.15.19,3.85,3.85,0,0,1,.54,1.33,9.22,9.22,0,0,1,.15,2.62c0,.24-.13.32-.38.26a3.92,3.92,0,0,0-2.94.4,2.11,2.11,0,0,0-.59.48c-.16,0-.12-.11-.12-.18a1.31,1.31,0,0,1,.34-1,2.83,2.83,0,0,1,1.49-.93c.12,0,.16-.07.17-.19.08-.67,0-1.34.12-2l.21-.57c0-.07.16-.14.12-.22A.24.24,0,0,0-1213,442.82Z" transform="translate(1241.63 -442.17)"/><path class="cls-9" d="M-1217.71,517v2.57a2.62,2.62,0,0,1-.18.95,1.33,1.33,0,0,1-1.21.82c-.21,0-.42,0-.63,0s-.17-.06-.17-.18,0-.47,0-.7.06-.18.18-.17c.75.08.88-.3.87-.9,0-1.66,0-3.31,0-5,0-.4,0-.34.35-.35h.57c.17,0,.22,0,.22.22,0,.9,0,1.8,0,2.7Z" transform="translate(1241.63 -442.17)"/><path class="cls-7" d="M-1213.08,443.72c-.07.67,0,1.34-.12,2,0,.12,0,.16-.17.19a2.83,2.83,0,0,0-1.49.93,1.31,1.31,0,0,0-.34,1c0,.07,0,.2.12.18-.18.68,0,.95.74.92a2.09,2.09,0,0,1,.51,0,6.61,6.61,0,0,0-1.18.48,11.16,11.16,0,0,0-1.06.74c-.06.05-.12.17-.22.1a.24.24,0,0,1,0-.3c.12-.39.24-.78.39-1.16.53-1.41,1.06-2.82,1.6-4.23a2.88,2.88,0,0,1,.53-.93l0,0a4.41,4.41,0,0,0-.69,1.71A6.44,6.44,0,0,1-1213.08,443.72Z" transform="translate(1241.63 -442.17)"/><path class="cls-7" d="M-1200.87,504.46l1.92-.42a21.51,21.51,0,0,0,.35,2.39c0,.12,0,.18-.13.2-.54.12-1.08.19-1.63.27-.16,0-.21,0-.24-.2A18.76,18.76,0,0,1-1200.87,504.46Z" transform="translate(1241.63 -442.17)"/><path class="cls-7" d="M-1211.33,507c0,.12,0,.15-.07.19l-1.29,1.34a.3.3,0,0,0-.07.38c.31.66.6,1.33.84,2,0,.06.11.14,0,.19s-.15,0-.2-.1c-.33-.5-.66-1-1-1.5-.19-.31-.19-.32-.42,0a4.54,4.54,0,0,1-.9.85c-.09.08-.2.17-.32.07s-.06-.23,0-.34a2.94,2.94,0,0,1,.82-1.1l.16-.13c.15-.09.15-.19.06-.35a6,6,0,0,1-.79-2.13.09.09,0,0,1,0,0c0-.14,0-.32.12-.37s.16.15.21.24c.35.64.75,1.25,1,1.91.06.13.11.14.23.05.44-.34.9-.66,1.35-1Z" transform="translate(1241.63 -442.17)"/><path class="cls-7" d="M-1207.16,511.16a.24.24,0,0,1-.26-.13c-.14-.2-.28-.38-.41-.58s-.13-.12-.2,0-.22.39-.33.57a.72.72,0,0,1-.63.12c-.06-.06,0-.12,0-.17a8.43,8.43,0,0,1,.44-1.22.3.3,0,0,0,0-.34c-.28-.41-.57-.8-.82-1.23-.08-.15-.15-.31-.22-.47a.21.21,0,0,1,0-.29.26.26,0,0,1,.3,0,3.3,3.3,0,0,1,.6.52,6.14,6.14,0,0,1,.55.71c.08.13.13.11.2,0a7.62,7.62,0,0,1,.67-.91,1.29,1.29,0,0,1,.16-.17c0-.05.11-.12.19-.08s.05.13,0,.21a6.51,6.51,0,0,1-.23.71c-.13.34-.27.67-.41,1a.37.37,0,0,0,0,.34,8.78,8.78,0,0,1,.47,1.2C-1207,511.11-1207,511.19-1207.16,511.16Z" transform="translate(1241.63 -442.17)"/><path class="cls-7" d="M-1214,496.85a13.09,13.09,0,0,0,.48,2.32,9.2,9.2,0,0,0,.41,1,9.22,9.22,0,0,0-1,1.64l-.16.36a2.31,2.31,0,0,1-.31-.78,5.53,5.53,0,0,1,0-3,6.72,6.72,0,0,0,.31-1.17A.61.61,0,0,1-1214,496.85Z" transform="translate(1241.63 -442.17)"/><path class="cls-7" d="M-1193.59,510.5c0,.17-.08.15-.16.09a5.62,5.62,0,0,1-.75-.62c-.15-.15-.31-.4-.48-.37s-.23.3-.35.47c-.21.33-.43.66-.65,1,0,.06-.08.14-.15.1s0-.12,0-.17c.23-.57.46-1.13.71-1.69a.27.27,0,0,0-.06-.33,4.64,4.64,0,0,1-.77-1.28l-.06-.17c0-.14-.07-.3.08-.39s.25,0,.34.13a7,7,0,0,1,.79.85c.08.12.14.15.23,0a4.32,4.32,0,0,1,.78-1c.11-.09.22-.25.36-.15s0,.23,0,.34a9.6,9.6,0,0,1-.66,1.37.32.32,0,0,0,0,.4,6.27,6.27,0,0,1,.74,1.28C-1193.62,510.38-1193.61,510.45-1193.59,510.5Z" transform="translate(1241.63 -442.17)"/><path class="cls-7" d="M-1198.65,509.31l.65-1.15c.06-.1.13-.2.2-.3s.07-.1.13-.07,0,.1,0,.15a8.66,8.66,0,0,1-.34,1.13,2.9,2.9,0,0,1-.18.52.46.46,0,0,0,.09.53c.27.34.54.68.85,1a.78.78,0,0,1-.61-.11,5.36,5.36,0,0,1-.57-.34c-.11-.08-.16-.05-.19.06-.09.39-.35.46-.71.42s-.28,0-.16-.27.18-.42.29-.62a.2.2,0,0,0,0-.29,5.88,5.88,0,0,1-.93-1.22,1.19,1.19,0,0,1-.17-.49.38.38,0,0,1,.18-.37.33.33,0,0,1,.38,0,1.62,1.62,0,0,1,.31.33C-1199.18,508.62-1198.93,509-1198.65,509.31Z" transform="translate(1241.63 -442.17)"/><path class="cls-7" d="M-1212.73,500.85a9.73,9.73,0,0,0,1.21,1.36,14.21,14.21,0,0,0-.79,2c-.09.27-.09.27-.3.1a6.61,6.61,0,0,1-1-1,.34.34,0,0,1-.07-.39A21.67,21.67,0,0,1-1212.73,500.85Z" transform="translate(1241.63 -442.17)"/><path class="cls-7" d="M-1201.75,511.14c-.35.11-.52-.11-.71-.27s-.23-.2-.36.07c0,.08,0,.21-.17.22a3.51,3.51,0,0,1-.56,0c-.06,0,0-.09,0-.14.09-.21.17-.42.27-.62a.27.27,0,0,0-.07-.34,3.91,3.91,0,0,1-1-1.22,2.44,2.44,0,0,1-.11-.32.33.33,0,0,1,.11-.39.32.32,0,0,1,.4.06,2.67,2.67,0,0,1,.61.6l.44.62c.11-.23.21-.43.3-.64s.29-.67.44-1c0-.06,0-.16.15-.13s.06.12.06.19a7.66,7.66,0,0,1-.31,1.42,1.93,1.93,0,0,1-.12.41.64.64,0,0,0,.11.74C-1202,510.62-1201.92,510.88-1201.75,511.14Z" transform="translate(1241.63 -442.17)"/><path class="cls-7" d="M-1209.49,503.71a13,13,0,0,0,1.78.81,5.06,5.06,0,0,0-.16,1.64c0,.3,0,.31-.26.24-.49-.13-1-.29-1.45-.44-.22-.08-.25-.19-.21-.39C-1209.68,505-1209.59,504.33-1209.49,503.71Z" transform="translate(1241.63 -442.17)"/><path class="cls-7" d="M-1198.23,503.84l1.19-.4a7.64,7.64,0,0,0,.91,2c.11.16.08.23-.09.31a13.72,13.72,0,0,1-1.33.54c-.27.09-.27.09-.31-.19C-1198,505.35-1198.08,504.59-1198.23,503.84Z" transform="translate(1241.63 -442.17)"/><path class="cls-7" d="M-1196.51,503.22a11.58,11.58,0,0,0,1.35-.71,6.3,6.3,0,0,0,.9,1.7c.1.13.08.19,0,.28a9.48,9.48,0,0,1-1.15.85c-.11.07-.18.08-.24-.06C-1196,504.59-1196.3,503.93-1196.51,503.22Z" transform="translate(1241.63 -442.17)"/><path class="cls-7" d="M-1204.87,504.9l1.74-.11c-.14.69-.27,1.38-.4,2.07,0,.11-.07.14-.17.13l-1-.05c-.15,0-.14-.1-.14-.2C-1204.86,506.13-1204.86,505.51-1204.87,504.9Z" transform="translate(1241.63 -442.17)"/><path class="cls-7" d="M-1207.17,504.68a9.42,9.42,0,0,0,1.67.21,11.66,11.66,0,0,0-.08,1.77c0,.16,0,.2-.21.17l-1.23-.19c-.16,0-.22-.07-.2-.24A14.12,14.12,0,0,0-1207.17,504.68Z" transform="translate(1241.63 -442.17)"/><path class="cls-7" d="M-1211.09,502.59l1.15.85a7.86,7.86,0,0,0-.59,2.11,12.11,12.11,0,0,1-1.19-.63c-.13-.08-.06-.17,0-.26.21-.56.41-1.13.58-1.72A3.59,3.59,0,0,0-1211.09,502.59Z" transform="translate(1241.63 -442.17)"/><path class="cls-7" d="M-1202.63,504.73l1.18-.16a6.63,6.63,0,0,0,.2,2.26c0,.14,0,.15-.13.15l-1.18,0c-.16,0-.19,0-.17-.2A12.31,12.31,0,0,0-1202.63,504.73Z" transform="translate(1241.63 -442.17)"/><path class="cls-7" d="M-1194.64,502.16c.4-.33.78-.67,1.16-1,.26.42.51.85.78,1.27a.24.24,0,0,1,0,.29,10.62,10.62,0,0,1-.89,1.14c-.1.12-.15.12-.22,0C-1194.09,503.24-1194.37,502.7-1194.64,502.16Z" transform="translate(1241.63 -442.17)"/><path class="cls-7" d="M-1193,500.62a16,16,0,0,0,1-1.4l.51.47a.19.19,0,0,1,.08.24,13.47,13.47,0,0,1-.83,1.94Z" transform="translate(1241.63 -442.17)"/><path class="cls-7" d="M-1191.64,498.65c.33-.59.62-1.21.91-1.83a18.44,18.44,0,0,1-.37,2.1c0,.14-.09.13-.18,0Z" transform="translate(1241.63 -442.17)"/><path class="cls-7" d="M-1213,442.82a.24.24,0,0,1,.27.11c0,.08-.07.15-.12.22a.57.57,0,0,0-.29,0,1.47,1.47,0,0,0-.62.48l0,0A4.54,4.54,0,0,1-1213,442.82Z" transform="translate(1241.63 -442.17)"/><path class="cls-5" d="M-1241.22,511.18h0Z" transform="translate(1241.63 -442.17)"/><path class="cls-2" d="M-1232.33,489.46a1.4,1.4,0,0,1-.71-1.53c0-.19,0-.38.06-.57a4,4,0,0,1,2.09-2.89,2.83,2.83,0,0,1,.92-.23h.08a2.42,2.42,0,0,1,1.15.26.78.78,0,0,0,.07.42,2.32,2.32,0,0,1,.09,1.7.68.68,0,0,1-.5.48l-.64.16a.29.29,0,0,0-.24.35,1.65,1.65,0,0,1-.91,1.6,3.38,3.38,0,0,1-.58.25.69.69,0,0,1-.51,0A.52.52,0,0,0-1232.33,489.46Z" transform="translate(1241.63 -442.17)"/><path class="cls-2" d="M-1213.63,473a3.2,3.2,0,0,1-1.15-.74,2.28,2.28,0,0,1-.68-1.71,1.46,1.46,0,0,1,.26-.72,1.87,1.87,0,0,1,1.51-1.16,3.91,3.91,0,0,1,1.7.17c0,.18.07.3.18.42s.09.14.14.21l-.85-.3a2.3,2.3,0,0,0-1.88.22,1.05,1.05,0,0,0-.34.29s-.07.07,0,.12.08,0,.12,0a2.64,2.64,0,0,1,1,.17c1,.35,1.9.74,2.82,1.18a1.25,1.25,0,0,1-.5.91,1.65,1.65,0,0,1-.82.49,1.33,1.33,0,0,1-.62-1.34c0-.18.2-.36,0-.53s-.35-.13-.53-.19a11.47,11.47,0,0,0-1.55-.44c-.18,0-.25,0-.27.21a2.29,2.29,0,0,0,.24,1.09,2.75,2.75,0,0,0,1.41,1.32Z" transform="translate(1241.63 -442.17)"/><path class="cls-7" d="M-1210.88,471.12c-.92-.44-1.86-.83-2.82-1.18a2.64,2.64,0,0,0-1-.17s-.1,0-.12,0,0-.09,0-.12a1.05,1.05,0,0,1,.34-.29,2.3,2.3,0,0,1,1.88-.22l.85.3a3.49,3.49,0,0,1,.79,1.48A.41.41,0,0,1-1210.88,471.12Z" transform="translate(1241.63 -442.17)"/><path class="cls-2" d="M-1211.69,467.78a4.18,4.18,0,0,0-2.77-.09l-.34.13c-.13,0-.18,0-.18-.15a.52.52,0,0,1,.49-.52,14,14,0,0,1,2.82,0l.23,0a1.12,1.12,0,0,0,.4.14,4.4,4.4,0,0,1,1.44.62c.08.06.25.09.19.21a.32.32,0,0,1-.38.18,2.48,2.48,0,0,1-.37-.17,9.92,9.92,0,0,0-1.4-.45C-1211.62,467.69-1211.65,467.75-1211.69,467.78Z" transform="translate(1241.63 -442.17)"/><path class="cls-2" d="M-1214.21,474.32a3.41,3.41,0,0,1-2-1c-.1-.08-.22-.15-.17-.31s0-.15.06-.18.13,0,.17.09a3.79,3.79,0,0,0,.38.32,3.14,3.14,0,0,0,1.9.69.41.41,0,0,0,.4.15,3.1,3.1,0,0,0,1.42-.43.66.66,0,0,1,.33-.12s.11,0,.13.05a.09.09,0,0,1,0,.11,2.54,2.54,0,0,1-2,.56A.71.71,0,0,0-1214.21,474.32Z" transform="translate(1241.63 -442.17)"/><path class="cls-2" d="M-1227.92,483.56a2.84,2.84,0,0,0-.8-.17.8.8,0,0,1,.88-.2.2.2,0,0,0,.2.11.94.94,0,0,1,.84.8,4.94,4.94,0,0,1,0,2.56,1.06,1.06,0,0,1-.22.42c0,.07-.11.13-.2.05s0-.13,0-.19a3.18,3.18,0,0,0,.24-2.64A1,1,0,0,0-1227.92,483.56Z" transform="translate(1241.63 -442.17)"/><path class="cls-8" d="M-1206.58,455.56a10.78,10.78,0,0,1,1.06-5.24c.26-.64.51-1.28.8-1.9,0-.09.06-.22.21-.21s.15.15.18.26a4.24,4.24,0,0,1,0,1.33c0,.51-.08,1-.07,1.52,0,.05,0,.13,0,.16s.12,0,.17-.06a1,1,0,0,0,.48-.93c-.12-1.25-.28-2.49-.43-3.74-.08-.61-.15-1.23-.23-1.84,0-.12-.06-.26.11-.3a.3.3,0,0,1,.38.2q.14.51.24,1c.38,1.76.7,3.53,1,5.3a4.05,4.05,0,0,1-.5,2.83c-.65,1.09-1.24,2.2-2,3.23a5.32,5.32,0,0,1-.37.46.29.29,0,0,1-.42,0,1.75,1.75,0,0,1-.56-.65,1.41,1.41,0,0,1,0-.51C-1206.55,456.21-1206.57,455.89-1206.58,455.56Z" transform="translate(1241.63 -442.17)"/><path class="cls-7" d="M-1220.88,467.4c.15-.71.29-1.4.44-2.09.21-.94.33-1.9.62-2.81a.57.57,0,0,1,.2-.3c.94-.77,1.9-1.52,2.81-2.33.64-.56,1.27-1.15,1.87-1.75a.31.31,0,0,1,.38-.11c.17.06.21.16.16.34-.33,1.16-.67,2.32-1,3.5-.18.75-.37,1.49-.56,2.24a.37.37,0,0,1-.17.25c-1.57,1-3.07,2-4.61,3C-1220.75,467.36-1220.79,467.41-1220.88,467.4Z" transform="translate(1241.63 -442.17)"/><path class="cls-7" d="M-1207.12,449.78c-.13.25-.28.48-.38.73a20.09,20.09,0,0,0-1,3.67c-.09.44-.16.89-.21,1.34a5.27,5.27,0,0,0,0,1.43c0,.21-.09.31-.29.23a.74.74,0,0,1-.43-.47,2.62,2.62,0,0,1-.12-1.21,10.28,10.28,0,0,1,1-3.42,10.75,10.75,0,0,1,1.23-2.16C-1207.24,449.87-1207.22,449.8-1207.12,449.78Z" transform="translate(1241.63 -442.17)"/><path class="cls-7" d="M-1214.8,457.39c0-.13.08-.21.14-.3a16.17,16.17,0,0,1,2.11-2.34.56.56,0,0,1,.15-.1.19.19,0,0,1,.25,0,.17.17,0,0,1,0,.24,4.1,4.1,0,0,1-.6.72,21.84,21.84,0,0,1-2.07,1.76Z" transform="translate(1241.63 -442.17)"/><path class="cls-7" d="M-1218.15,466.78l-.27.19a25.53,25.53,0,0,1-2.43,1.54c-.14.07-.33.27-.45.06s.16-.26.29-.34c.87-.58,1.85-1,2.76-1.48l.08,0Z" transform="translate(1241.63 -442.17)"/><path class="cls-7" d="M-1212.24,460.86a4.76,4.76,0,0,0,.56-2.05c0-.1,0-.21.07-.31s0-.12.14-.12.13.06.14.14a.57.57,0,0,1,0,.18,3,3,0,0,1-.54,1.81A1,1,0,0,1-1212.24,460.86Z" transform="translate(1241.63 -442.17)"/><path class="cls-7" d="M-1223.8,463.55a1.43,1.43,0,0,1,1.15.39c.11.11.2.25.05.4a.31.31,0,0,1-.43-.11l-.06-.09C-1223.33,463.71-1223.34,463.7-1223.8,463.55Z" transform="translate(1241.63 -442.17)"/><path class="cls-10" d="M-1214.81,457.39h0Z" transform="translate(1241.63 -442.17)"/><path class="cls-11" d="M-1232.76,482.09l0,0Z" transform="translate(1241.63 -442.17)"/><path class="cls-7" d="M-1233,492.08a1.69,1.69,0,0,1-.61.36,3.18,3.18,0,0,1-3.3-.35,3.41,3.41,0,0,1-1.2-2,4.86,4.86,0,0,1,.19-2.92,2,2,0,0,1,.41-.63.67.67,0,0,1,.44-.2.4.4,0,0,1,.39.17.38.38,0,0,1,0,.41,4.1,4.1,0,0,0,0,3.75,1.83,1.83,0,0,0,.81.84,4.81,4.81,0,0,0,2.09.7A4.17,4.17,0,0,0-1233,492.08Z" transform="translate(1241.63 -442.17)"/><path class="cls-7" d="M-1233.14,488.85a2.35,2.35,0,0,1-.62-3.3,2.87,2.87,0,0,1,1.16-1.18c.25-.14.5,0,.75,0a.07.07,0,0,1,0,.1c-.1.17-.13.36-.28.49a3.63,3.63,0,0,0-1.05,3.83S-1233.14,488.81-1233.14,488.85Z" transform="translate(1241.63 -442.17)"/><path class="cls-7" d="M-1234.39,489.12a4.86,4.86,0,0,0,1.24.64c.1,0,.19.1.17.23s-.12.18-.24.19a1,1,0,0,1-.75-.3A1.64,1.64,0,0,1-1234.39,489.12Z" transform="translate(1241.63 -442.17)"/><path class="cls-2" d="M-1238.15,519.23c0-.3,0-.6,0-.91,0-.15,0-.22.2-.21h.41a.55.55,0,0,1,.61.56,11.22,11.22,0,0,1,0,1.16.47.47,0,0,1-.45.49c-.24,0-.53.1-.72,0s0-.38-.05-.58Z" transform="translate(1241.63 -442.17)"/><path class="cls-2" d="M-1237,516.1c0,.12,0,.24,0,.36a.59.59,0,0,1-.67.61c-.56,0-.45.06-.46-.43s0-.84,0-1.27c0-.17.05-.23.22-.21h.11c.65,0,.8.15.8.8v.14Z" transform="translate(1241.63 -442.17)"/><path class="cls-2" d="M-1228.34,517.74v-2c0-.47.3-.72.73-.63a.57.57,0,0,1,.45.62v4c0,.37-.13.57-.38.66a.57.57,0,0,1-.79-.59c0-.69,0-1.37,0-2.06Z" transform="translate(1241.63 -442.17)"/><path class="cls-2" d="M-1209.59,515.55c.17,1.1.33,2.2.5,3.31,0,.15,0,.22-.18.21s-.47,0-.7,0-.19,0-.16-.17l.39-2.64c0-.24.08-.48.11-.71Z" transform="translate(1241.63 -442.17)"/><path class="cls-2" d="M-1189,495c-.26.19-.24.6-.36.9a41.08,41.08,0,0,0-2.07,7.44c-.51,2.53-1,5.07-1.33,7.62,0,.12-.06.21.14.21h5.47c.32,0,.64,0,1-.05s.34,0,.34.36q0,6.31,0,12.64c0,.23-.09.26-.29.26h-55.16c-.33,0-.33,0-.33-.33q0-5.91,0-11.83c0-.26,0-.53,0-.79a.26.26,0,0,1,.11-.23.53.53,0,0,0,.28,0h12.52c.17,0,.28,0,.35-.2a47.64,47.64,0,0,1,4.57-9.11,21.06,21.06,0,0,1,4.22-4.9A10.05,10.05,0,0,1-1216,495a5.89,5.89,0,0,1,1.38-.25c.18,0,.27-.07.3-.26s.11-.57.15-.85c.17-1.25.31-2.51.42-3.76.14-1.44.18-2.89.21-4.33a.23.23,0,0,0-.2-.27,4.35,4.35,0,0,1-1.23-.47,1,1,0,0,0-1.1,0,17.37,17.37,0,0,0-4.71,2.83.87.87,0,0,0-.39.62,1,1,0,0,1-.15.4,2.54,2.54,0,0,1-1.16,1.11.41.41,0,0,0-.26.31c-.06.28-.1.57-.17.85a4.15,4.15,0,0,1-1.79,2.56,6.28,6.28,0,0,1-4.31.95c-.25,0-.49-.25-.73-.19a3.44,3.44,0,0,0-.69.39,3.25,3.25,0,0,1-3.54,0,2.84,2.84,0,0,0-1.07-.41,4.65,4.65,0,0,1-3.74-3.24,6.35,6.35,0,0,1-.23-2.34,4.68,4.68,0,0,1,1.17-3.09,1.34,1.34,0,0,0,.25-.59.7.7,0,0,0-.13-.61,1.48,1.48,0,0,1-.12-.29,2.1,2.1,0,0,1,1.06-2.22.41.41,0,0,0,.22-.21,34.8,34.8,0,0,1,2.68-5.27,34.38,34.38,0,0,1,2.73-3.85c1.39-1.67,2.9-3.25,4.44-4.79.34-.35.36-.36.15-.81a3,3,0,0,1,.16-2.95,8.63,8.63,0,0,1,2-2.28,11.79,11.79,0,0,1,2.9-1.57c.27-.11.54-.2.63-.52,0,0,.06-.06.1-.09s-.07.18,0,.25.18,0,.26-.07l0,0c.58-.58,1.24-1.07,1.85-1.61.84-.77,1-1.88,1.53-2.83a.22.22,0,0,0-.08-.3c-.15-.09-.26,0-.35.11a19.81,19.81,0,0,0-2,2.13,1,1,0,0,1-.81-.33.17.17,0,0,1-.07-.18,5.75,5.75,0,0,1,.27-1.16,3.26,3.26,0,0,1,1.23-1.42c.18-.14.38-.26.6-.4h-.4a.82.82,0,0,1-.87-.87,2.45,2.45,0,0,1,.69-1.7,7.13,7.13,0,0,1,2-1.48.34.34,0,0,0,.2-.22c.3-1,.68-2,1-2.91a16.83,16.83,0,0,1,1.23-2.9,2.63,2.63,0,0,1,1.3-1.31h.56a2.43,2.43,0,0,1,1.26,1.34,10.78,10.78,0,0,1,.64,3.23c0,.07-.05.18.08.2l.5.08c0-.13-.15-.13-.22-.16a.34.34,0,0,1-.1-.59.78.78,0,0,1,.47-.21,6.43,6.43,0,0,1,1.24,0,2.31,2.31,0,0,1,1.6.7l.09.05c.19-.34.39-.66.55-1,.28-.64.58-1.26.87-1.89a.77.77,0,0,1,.44-.37,1.09,1.09,0,0,1,1.3.31,4.82,4.82,0,0,1,.35.44,7.36,7.36,0,0,1,.85,2.12,18.5,18.5,0,0,1,.8,5c0,.1,0,.19.12.26a9.56,9.56,0,0,1,2.65,2.21l.23.25a4.65,4.65,0,0,1,.16-.84.38.38,0,0,1,.54-.26,1.34,1.34,0,0,1,.49.32,5.48,5.48,0,0,1,.9,1.19,11.54,11.54,0,0,1,.9,2.42,4.34,4.34,0,0,1,.17,1.68.71.71,0,0,0,.25.7,6.52,6.52,0,0,0,.1-1,.6.6,0,0,0-.12-.43c0-.05-.08-.11,0-.17s.13,0,.19,0a1.89,1.89,0,0,1,.85.68,6.93,6.93,0,0,1,1.07,2.46,13.9,13.9,0,0,1,.37,3.69,1.84,1.84,0,0,0,.23.73c.08-.3.13-.58.19-.87.09-.46.18-.91.26-1.36,0-.07,0-.14.11-.14s.09.07.1.13a3.58,3.58,0,0,0,.09.35,26.06,26.06,0,0,1,.87,2.72,9.9,9.9,0,0,1,.33,4.22,2.85,2.85,0,0,0,.2,1.53,3.38,3.38,0,0,0,.26-1s0-.13,0-.15.12,0,.16.1l0,.07a7.68,7.68,0,0,1,1.07,3,8.47,8.47,0,0,1-.29,4.27.59.59,0,0,0,0,.23,50,50,0,0,1,.47,5.6,70.6,70.6,0,0,1-.37,9c0,.16,0,.2.18.21s.58,0,.86.07c.77.07,1.31.65,2.39,1.36,5,9.45,2.37,17.27,2.37,17.37,0,1.35-2.46-.48-2.46.88,0,.06,2.75-11.14,0-14.67C-1185.87,498.19-1187.57,493.91-1189,495Zm-24.81-51.39a2.88,2.88,0,0,0-.53.93c-.54,1.41-1.07,2.82-1.6,4.23-.15.38-.27.77-.39,1.16a.24.24,0,0,0,0,.3c.1.07.16-.05.22-.1a11.16,11.16,0,0,1,1.06-.74,6.61,6.61,0,0,1,1.18-.48,2.09,2.09,0,0,0-.51,0c-.71,0-.92-.24-.74-.92a2.11,2.11,0,0,1,.59-.48,3.92,3.92,0,0,1,2.94-.4c.25.06.37,0,.38-.26a9.22,9.22,0,0,0-.15-2.62,3.85,3.85,0,0,0-.54-1.33.83.83,0,0,0-1.15-.19s-.09.06,0,.09A4.54,4.54,0,0,0-1213.81,443.61Zm-12.48,22.46a2.61,2.61,0,0,0,.1.69.93.93,0,0,1-.27,1.06c-.69.66-1.39,1.31-2,2a46,46,0,0,0-3.56,4.08,41.16,41.16,0,0,0-3.75,6.46,2.78,2.78,0,0,0-.16.4c0,.13,0,.23.18.18l-.51,1.28a1.5,1.5,0,0,0-.8,2.15c0,.33-.09.65-.13,1a.44.44,0,0,1-.09.18,6.24,6.24,0,0,0-1.1,4.47c.23.91.13,1.17.82,1.9a8.67,8.67,0,0,0,1.93,1.21,4.1,4.1,0,0,0,3.08-.19.35.35,0,0,0,.46,0,10.29,10.29,0,0,0,1.21-.87c1.06-.81,2.05-1.7,3.17-2.42a5,5,0,0,1,3.38-.78c.07,0,.2,0,.19.09s-.1.16-.21.16h-.23a5.65,5.65,0,0,0-1.53.16,6.83,6.83,0,0,0-2.92,1.66c-.71.67-1.43,1.34-2.2,1.94a11.08,11.08,0,0,1-2.24,1.23c-.06,0-.16,0-.16.14s.09.09.15.13l.16.08a2.31,2.31,0,0,0,2.38.09,20.26,20.26,0,0,0,2.48-1.51c.06,0,.15-.19.23-.07s-.1.12-.17.16a5.64,5.64,0,0,0-.78.58c-.19.19-.14.36.12.43a2.09,2.09,0,0,0,.56.06,5.58,5.58,0,0,0,4.48-2.26,4.67,4.67,0,0,0,.86-1.58.24.24,0,0,0,0-.27c-.08-.08-.18,0-.28,0a6.34,6.34,0,0,0-.66.39c-.06,0-.12.12-.24,0a7.44,7.44,0,0,1,.75-.45,5.68,5.68,0,0,0,1.57-1.05,1.15,1.15,0,0,0-.16-1.8,3.61,3.61,0,0,0-1.63-.85s-.16,0-.13-.11a.17.17,0,0,1,.18-.13,1.41,1.41,0,0,1,.22.06,5.7,5.7,0,0,1,1.72,1,.58.58,0,0,1,.19.27c.15.44.24.46.57.14l.09-.1a5.63,5.63,0,0,1,.91-.85,32.48,32.48,0,0,1,3.28-1.9,7,7,0,0,1,1.61-.71c.14,0,.15-.16.09-.27a1.6,1.6,0,0,0-.3-.42,7.07,7.07,0,0,1-1-1.07,7.3,7.3,0,0,1-1-3.51c0-.09,0-.18.12-.18s.1.11.11.17a13.65,13.65,0,0,0,.46,2.2,4,4,0,0,0,2,2.47,5.85,5.85,0,0,0,2.68.67,9.34,9.34,0,0,0,4-.93,5.82,5.82,0,0,0,2.31-1.89,13.29,13.29,0,0,0,2.45-7.45c0-1.33,0-2.66-.07-4,0-.13-.13-.36.13-.38s.19.23.21.37c.12,1.05.18,2.11.21,3.17a18.3,18.3,0,0,1-.27,3.84,16.35,16.35,0,0,1-1.41,4,5.62,5.62,0,0,1-2.38,2.54,14.5,14.5,0,0,1-3,1.21,4.74,4.74,0,0,1-2,.16l-.81-.08c-.23,0-.3.07-.26.3a2.72,2.72,0,0,1,0,.64l-.15,2.35c-.16,2.38-.31,4.76-.47,7.14a2.18,2.18,0,0,1-.24.93,1.49,1.49,0,0,0-.2.85.61.61,0,0,0-.23.38,6.72,6.72,0,0,1-.31,1.17,5.53,5.53,0,0,0,0,3,2.31,2.31,0,0,0,.31.78l.16-.36a9.22,9.22,0,0,1,1-1.64l.36.65a21.67,21.67,0,0,0-.93,2,.34.34,0,0,0,.07.39,6.61,6.61,0,0,0,1,1c.21.17.21.17.3-.1a14.21,14.21,0,0,1,.79-2l.43.38a3.59,3.59,0,0,1-.08.35c-.17.59-.37,1.16-.58,1.72,0,.09-.1.18,0,.26a12.11,12.11,0,0,0,1.19.63,7.86,7.86,0,0,1,.59-2.11l.45.27c-.1.62-.19,1.24-.3,1.86,0,.2,0,.31.21.39.48.15,1,.31,1.45.44.28.07.29.06.26-.24a5.06,5.06,0,0,1,.16-1.64l.54.16a14.12,14.12,0,0,1,0,1.72c0,.17,0,.22.2.24l1.23.19c.17,0,.21,0,.21-.17a11.66,11.66,0,0,1,.08-1.77h.63c0,.61,0,1.23,0,1.84,0,.1,0,.2.14.2l1,.05c.1,0,.15,0,.17-.13.13-.69.26-1.38.4-2.07l.5-.06a12.31,12.31,0,0,1-.1,2.1c0,.15,0,.2.17.2l1.18,0c.1,0,.18,0,.13-.15a6.63,6.63,0,0,1-.2-2.26l.58-.11a18.76,18.76,0,0,0,.27,2.24c0,.17.08.22.24.2.55-.08,1.09-.15,1.63-.27.13,0,.16-.08.13-.2a21.51,21.51,0,0,1-.35-2.39l.72-.2c.15.75.26,1.51.37,2.28,0,.28,0,.28.31.19a13.72,13.72,0,0,0,1.33-.54c.17-.08.2-.15.09-.31a7.64,7.64,0,0,1-.91-2l.53-.22c.21.71.55,1.37.83,2.06.06.14.13.13.24.06a9.48,9.48,0,0,0,1.15-.85c.11-.09.13-.15,0-.28a6.3,6.3,0,0,1-.9-1.7l.52-.35c.27.54.55,1.08.82,1.63.07.16.12.16.22,0a10.62,10.62,0,0,0,.89-1.14.24.24,0,0,0,0-.29c-.27-.42-.52-.85-.78-1.27l.45-.51.81,1.25a13.47,13.47,0,0,0,.83-1.94.19.19,0,0,0-.08-.24l-.51-.47.34-.57.36.31c.09.09.15.1.18,0a18.44,18.44,0,0,0,.37-2.1c0-.13.09-.27.15-.4a10.75,10.75,0,0,0,.84-3.39,30.19,30.19,0,0,0-.06-4.56,1.62,1.62,0,0,0-.34-.87c-.68-.91-1.34-1.83-2-2.75-.39-.53-.79-1.06-1.13-1.61-.16-.25,0-.46.08-.68s.3-.17.48-.12l.57.14a3.27,3.27,0,0,0,.69.15.23.23,0,0,0,.24-.09c.06-.1,0-.18,0-.25a4.39,4.39,0,0,0-.33-.4c-.69-.7-1.37-1.4-2.06-2.09a1.08,1.08,0,0,1-.25-1.07c0-.15.1-.21.25-.17a6.67,6.67,0,0,1,1.62.7c.07,0,.12.06.18,0a.12.12,0,0,0,0-.18.62.62,0,0,1-.14-.14c-1-1.4-2-2.79-3-4.22a1.1,1.1,0,0,1-.18-.58c0-.28,0-.33.3-.26l1.31.37a4.17,4.17,0,0,0,.49.08.23.23,0,0,0,.24-.09c.06-.1,0-.17-.06-.25a3.1,3.1,0,0,0-.46-.5c-.62-.58-1.25-1.16-1.89-1.73a1.66,1.66,0,0,1-.55-1.27c0-.21,0-.24.24-.15l.62.32a5.74,5.74,0,0,0,.93.46.29.29,0,0,0,.31,0c.1-.09.06-.2,0-.3s-.06-.19-.1-.28a14,14,0,0,0-.81-1.47,6.81,6.81,0,0,0-2-2.37,1.12,1.12,0,0,1-.41-.59c-.09-.24-.07-.28.2-.26s.58.05.88.06c.14,0,.31,0,.39-.13s0-.28-.13-.38a12.62,12.62,0,0,0-1-1.16,17.68,17.68,0,0,0-3.57-3.17.76.76,0,0,1-.3-.36c-.11-.23-.09-.26.16-.23s.69.09,1,.13c.1,0,.22,0,.28-.09s0-.19-.1-.26a6.85,6.85,0,0,0-1.55-1.49c-.37-.25-.73-.51-1.09-.78a1.71,1.71,0,0,1-.26-.21.56.56,0,0,1-.14-.56c.12-.15.27,0,.4,0s.49.11.73.13.46-.12.3-.42a5.39,5.39,0,0,0-1.45-1.8.74.74,0,0,0-.68-.18.57.57,0,0,1,.1-.3,5.22,5.22,0,0,0,.45-2.13c0-.63-.07-1.24-.12-1.86s-.08-1.05-.14-1.58c-.11-.95-.31-1.89-.49-2.84a4.76,4.76,0,0,0-.42-1.47,1.13,1.13,0,0,0-.9-.65,1,1,0,0,0-.76.24.42.42,0,0,0-.18.51s0,0,0,.07a7.79,7.79,0,0,1-.37,1c-.58,1.12-1.22,2.21-1.77,3.35-.45.91-.82,1.85-1.28,2.75a7.64,7.64,0,0,0-.93,4c0,.16,0,.33,0,.51a.6.6,0,0,0-.37-.22.2.2,0,0,0,0,.07,4.1,4.1,0,0,1-.53,2.4c-.08.15-.16.14-.24,0a1.82,1.82,0,0,1-.21-.47c-.13-.41-.18-.83-.28-1.24,0-.06,0-.17-.12-.16s-.08.09-.1.15a1.16,1.16,0,0,0,0,.18,4.88,4.88,0,0,1-.14.92,4.83,4.83,0,0,1-1.12,2.19.28.28,0,0,1-.31.1c-.26-.05-.28-.21-.29-.41a14.36,14.36,0,0,1,.35-3,1.71,1.71,0,0,1,.31-.91,5.15,5.15,0,0,0,.89-1.36,1.21,1.21,0,0,0,.12-.46.34.34,0,0,0-.17-.35.34.34,0,0,0-.36,0,1.45,1.45,0,0,0-.35.35c-.77,1-1.63,1.85-2.49,2.73,0,0-.06.11-.15.09a.81.81,0,0,1,.08-.38,1.7,1.7,0,0,0,.14-.63c0-.07,0-.15-.06-.18s-.13,0-.17.06c-.22.22-.45.43-.65.67a9.31,9.31,0,0,1-1.91,1.74,1,1,0,0,1-.28.14c-.15,0-.23,0-.21-.17a1,1,0,0,0,0-.49c-.1,0-.13.12-.18.19a6.13,6.13,0,0,1-.64.79c-.46.39-.92.78-1.36,1.19a3.92,3.92,0,0,1-1.53.94,8.56,8.56,0,0,0-1.19.55c-.1.05-.17.09,0,.18a4.85,4.85,0,0,1,1.11,1.15,1.88,1.88,0,0,1,.31.48.28.28,0,0,1-.05.29.29.29,0,0,1-.3.06,1.33,1.33,0,0,1-.57-.43c-.36-.4-.72-.79-1.07-1.2-.1-.11-.17-.1-.28,0a6.44,6.44,0,0,0-1.16,1.05s-.1.06-.06.14a1.75,1.75,0,0,1,1.29.19,1.35,1.35,0,0,1,.71,1.55c0,.06,0,.15-.11.14s-.09-.07-.11-.13a2.88,2.88,0,0,0-.28-.59,1.39,1.39,0,0,0-1.55-.61c-.13,0-.31.06-.34.19s.15.18.25.25a11.06,11.06,0,0,1,1.84,1.57c.2.24.48.41.52.76l-.8.51a1.25,1.25,0,0,1-.7.23,2,2,0,0,1-.29-1.72.25.25,0,0,0-.11-.31c-.34-.25-.65-.53-1-.8-.12-.11-.17-.07-.21.07A3.78,3.78,0,0,0-1226.29,466.07Zm8.83,45.1h1.38c.42,0,.42,0,.42-.42,0-1.44,0-2.88.05-4.31s.18-3,.35-4.44c.11-1,.22-1.92.34-2.88.1-.78.22-1.55.32-2.33a.46.46,0,0,0-.16-.45.29.29,0,0,0-.34,0c-.22.17-.49.23-.72.38a15.49,15.49,0,0,0-2.7,2.35c-.41.44-.75.95-1.16,1.39a16.82,16.82,0,0,0-2,2.47,18.38,18.38,0,0,0-2.65,6.13,4.51,4.51,0,0,0-.16,1.37.54.54,0,0,0,.58.54c.2,0,.4,0,.61,0a21.38,21.38,0,0,1,4,.1s.11,0,.1,0c0,.18.09.09.14.1Zm-19.13,6.34a1.28,1.28,0,0,0,.65-.86,3.85,3.85,0,0,0,0-1.22,1.38,1.38,0,0,0-1.53-1.31h-1.64c-.19,0-.22.07-.22.23,0,.52,0,1,0,1.55v5.24c0,.12,0,.25.17.24.66,0,1.31,0,2,0a1.44,1.44,0,0,0,1.37-1.45,9.91,9.91,0,0,0,0-1.09A1.41,1.41,0,0,0-1236.59,517.51Zm7.11.22h0v2a2.07,2.07,0,0,0,.25,1,1.74,1.74,0,0,0,2,.67,1.48,1.48,0,0,0,1.19-1.56c0-1.39,0-2.79,0-4.18a1.51,1.51,0,0,0-.8-1.41,2,2,0,0,0-1.54-.12,1.52,1.52,0,0,0-1.1,1.54C-1229.48,516.35-1229.48,517-1229.48,517.73Zm41.6-3.61h-.87a.33.33,0,0,0-.38.23c-.41.89-.83,1.77-1.25,2.65,0,0,0,.13-.12.16v-.23c0-.86,0-1.72,0-2.58,0-.18,0-.24-.23-.23h-.71c-.15,0-.21,0-.21.2v6.88c0,.13,0,.19.18.18h.75c.17,0,.22-.06.22-.22,0-.56,0-1.11,0-1.66a1.72,1.72,0,0,1,.34-1c.06,0,.06.08.08.12l1,2.54c0,.13.1.19.24.18h.77c.16,0,.23,0,.15-.21-.45-1.11-.86-2.22-1.32-3.31a1,1,0,0,1,0-1C-1188.76,516-1188.34,515.07-1187.88,514.12Zm-21.66,0a5.42,5.42,0,0,1-.57,0c-.25,0-.3.08-.33.29-.22,1.42-.45,2.82-.67,4.23l-.42,2.55c0,.14,0,.2.16.19h.68c.13,0,.2,0,.21-.17,0-.31.1-.61.14-.92,0-.15.07-.24.26-.23a7.85,7.85,0,0,0,1,0c.16,0,.22.06.24.2,0,.32.1.64.14,1,0,.14.07.16.19.16h.79c.15,0,.19-.06.17-.19l-.12-.69-.57-3.58c-.14-.87-.28-1.73-.41-2.6,0-.15-.09-.22-.25-.2Zm9.26,3.62h0c0-.7,0-1.39,0-2.09a.52.52,0,0,1,.51-.57.54.54,0,0,1,.63.51,5.22,5.22,0,0,1,0,.79c0,.13,0,.2.17.19h.73c.12,0,.16,0,.16-.16,0-.29,0-.59,0-.88a1.49,1.49,0,0,0-1.15-1.44,2.44,2.44,0,0,0-.76-.05,1.48,1.48,0,0,0-1.41,1.21,3.64,3.64,0,0,0-.07.81c0,.93,0,1.86,0,2.79a10.59,10.59,0,0,0,0,1.13,1.49,1.49,0,0,0,1.21,1.43,2.21,2.21,0,0,0,.63,0,1.44,1.44,0,0,0,1.47-1.17,8,8,0,0,0,.06-1.47c0-.12-.07-.14-.16-.14a4.85,4.85,0,0,1-.66,0c-.19,0-.25.06-.24.24a5.27,5.27,0,0,1,0,1.05.49.49,0,0,1-.49.45c-.42,0-.64-.16-.65-.59Zm-17.43-.7h0c0-.9,0-1.8,0-2.7,0-.17,0-.23-.22-.22h-.57c-.38,0-.35,0-.35.35,0,1.66,0,3.31,0,5,0,.6-.12,1-.87.9-.12,0-.18,0-.18.17s0,.47,0,.7,0,.18.17.18.42,0,.63,0a1.33,1.33,0,0,0,1.21-.82,2.62,2.62,0,0,0,.18-.95Zm6.38-10-.22.15c-.45.33-.91.65-1.35,1-.12.09-.17.08-.23-.05-.3-.66-.7-1.27-1-1.91,0-.09,0-.29-.21-.24s-.13.23-.12.37a.09.09,0,0,0,0,0,6,6,0,0,0,.79,2.13c.09.16.09.26-.06.35l-.16.13a2.94,2.94,0,0,0-.82,1.1c0,.11-.1.24,0,.34s.23,0,.32-.07a4.54,4.54,0,0,0,.9-.85c.23-.3.23-.29.42,0,.32.5.65,1,1,1.5,0,.07.11.15.2.1s0-.13,0-.19c-.24-.68-.53-1.35-.84-2a.3.3,0,0,1,.07-.38l1.29-1.34S-1211.3,507.16-1211.33,507Zm4.17,4.12c.16,0,.16-.05.12-.17a8.78,8.78,0,0,0-.47-1.2.37.37,0,0,1,0-.34c.14-.34.28-.67.41-1a6.51,6.51,0,0,0,.23-.71c0-.08,0-.16,0-.21s-.14,0-.19.08a1.29,1.29,0,0,0-.16.17,7.62,7.62,0,0,0-.67.91c-.07.11-.12.13-.2,0a6.14,6.14,0,0,0-.55-.71,3.3,3.3,0,0,0-.6-.52.26.26,0,0,0-.3,0,.21.21,0,0,0,0,.29c.07.16.14.32.22.47.25.43.54.82.82,1.23a.3.3,0,0,1,0,.34A8.43,8.43,0,0,0-1209,511s-.06.11,0,.17a.72.72,0,0,0,.63-.12c.11-.18.23-.37.33-.57s.12-.12.2,0,.27.38.41.58A.24.24,0,0,0-1207.16,511.16Zm13.57-.66c0-.05,0-.12-.06-.19a6.27,6.27,0,0,0-.74-1.28.32.32,0,0,1,0-.4,9.6,9.6,0,0,0,.66-1.37c0-.11.19-.25,0-.34s-.25.06-.36.15a4.32,4.32,0,0,0-.78,1c-.09.16-.15.13-.23,0a7,7,0,0,0-.79-.85c-.09-.09-.19-.23-.34-.13s-.12.25-.08.39l.06.17a4.64,4.64,0,0,0,.77,1.28.27.27,0,0,1,.06.33c-.25.56-.48,1.12-.71,1.69,0,0-.11.12,0,.17s.11,0,.15-.1c.22-.32.44-.65.65-1,.12-.17.22-.46.35-.47s.33.22.48.37a5.62,5.62,0,0,0,.75.62C-1193.67,510.65-1193.6,510.67-1193.59,510.5Zm-5.06-1.19c-.28-.35-.53-.69-.79-1a1.62,1.62,0,0,0-.31-.33.33.33,0,0,0-.38,0,.38.38,0,0,0-.18.37,1.19,1.19,0,0,0,.17.49,5.88,5.88,0,0,0,.93,1.22.2.2,0,0,1,0,.29c-.11.2-.2.41-.29.62s-.12.24.16.27.62,0,.71-.42c0-.11.08-.14.19-.06a5.36,5.36,0,0,0,.57.34.78.78,0,0,0,.61.11c-.31-.34-.58-.68-.85-1a.46.46,0,0,1-.09-.53,2.9,2.9,0,0,0,.18-.52,8.66,8.66,0,0,0,.34-1.13c0-.05.05-.12,0-.15s-.1,0-.13.07-.14.2-.2.3Zm-3.1,1.83c-.17-.26-.3-.52-.47-.75a.64.64,0,0,1-.11-.74,1.93,1.93,0,0,0,.12-.41,7.66,7.66,0,0,0,.31-1.42c0-.07,0-.17-.06-.19s-.12.07-.15.13c-.15.33-.29.67-.44,1s-.19.41-.3.64l-.44-.62a2.67,2.67,0,0,0-.61-.6.32.32,0,0,0-.4-.06.33.33,0,0,0-.11.39,2.44,2.44,0,0,0,.11.32,3.91,3.91,0,0,0,1,1.22.27.27,0,0,1,.07.34c-.1.2-.18.41-.27.62,0,.05-.06.13,0,.14a3.51,3.51,0,0,0,.56,0c.13,0,.13-.14.17-.22.13-.27.13-.27.36-.07S-1202.1,511.25-1201.75,511.14Z" transform="translate(1241.63 -442.17)"/></g><path class="cls-12" d="M-1227.82,519.34v-6.69h.85v5.94h2v.75Z" transform="translate(1241.63 -442.17)"/><path class="cls-12" d="M-1222.72,519.34v-.57a1,1,0,0,1-1,.65,1.11,1.11,0,0,1-.57-.15,1.11,1.11,0,0,1-.49-1.08,1.28,1.28,0,0,1,.37-1,7.57,7.57,0,0,1,.93-.68,4.75,4.75,0,0,0,.69-.56v-.16c0-.18,0-.67-.57-.67s-.57.49-.57.67,0,.24,0,.36h-.69c0-.13,0-.27,0-.4a1.11,1.11,0,0,1,.23-.84,1.3,1.3,0,0,1,1.07-.39,1.22,1.22,0,0,1,1,.34,1.22,1.22,0,0,1,.24.39,3.33,3.33,0,0,1,0,.81v2.27a2.25,2.25,0,0,0,.09.85.59.59,0,0,0,.14.16Zm0-2.7-.26.24a2.07,2.07,0,0,1-.24.17,3.08,3.08,0,0,0-.49.42,1.06,1.06,0,0,0-.23.69c0,.08,0,.71.52.7a.64.64,0,0,0,.52-.27,1.27,1.27,0,0,0,.18-.79Z" transform="translate(1241.63 -442.17)"/><path class="cls-12" d="M-1216.43,517.93a2.55,2.55,0,0,1-.15.91,1,1,0,0,1-1,.58,1.22,1.22,0,0,1-1-.5v.42h-.71v-6.69h.75V515a2.22,2.22,0,0,1,.17-.18,1.13,1.13,0,0,1,.76-.28,1,1,0,0,1,1,.58,4.49,4.49,0,0,1,.15,1.41C-1216.41,517-1216.41,517.45-1216.43,517.93Zm-.76-1.66c0-.19,0-.38,0-.56s0-.64-.56-.64a.65.65,0,0,0-.59.39,2.21,2.21,0,0,0-.09.95v1.08a2.29,2.29,0,0,0,.11,1,.73.73,0,0,0,.6.34.47.47,0,0,0,.51-.44,8.42,8.42,0,0,0,.06-1.33C-1217.18,516.8-1217.18,516.53-1217.19,516.27Z" transform="translate(1241.63 -442.17)"/><path class="cls-12" d="M-1215.65,513.77v-1h.74v1Zm0,5.57V514.6h.74v4.74Z" transform="translate(1241.63 -442.17)"/><path class="cls-12" d="M-1211.3,517.93a2.34,2.34,0,0,1-.15.91,1,1,0,0,1-1,.58,1.19,1.19,0,0,1-.95-.5v.42h-.71v-6.69h.75V515a.83.83,0,0,1,.17-.18,1.1,1.1,0,0,1,.75-.28,1,1,0,0,1,1,.58,4.49,4.49,0,0,1,.15,1.41C-1211.28,517-1211.28,517.45-1211.3,517.93Zm-.76-1.66c0-.19,0-.38,0-.56s-.06-.64-.57-.64a.65.65,0,0,0-.59.39,2.42,2.42,0,0,0-.08.95v1.08a2.51,2.51,0,0,0,.1,1,.73.73,0,0,0,.61.34c.18,0,.42,0,.51-.44a10.4,10.4,0,0,0,0-1.33C-1212,516.8-1212,516.53-1212.06,516.27Z" transform="translate(1241.63 -442.17)"/><path class="cls-12" d="M-1210.53,519.34v-6.69h.77v6.69Z" transform="translate(1241.63 -442.17)"/><path class="cls-12" d="M-1208.94,513.77v-1h.75v1Zm0,5.57V514.6h.75v4.74Z" transform="translate(1241.63 -442.17)"/><path class="cls-12" d="M-1204.78,517.93a2.85,2.85,0,0,1,0,.53c-.08.44-.31,1-1.29,1a1.23,1.23,0,0,1-1.12-.52,2.16,2.16,0,0,1-.19-1.09v-.61c0-.42,0-.83,0-1.23a1.61,1.61,0,0,1,.35-1.11,1.3,1.3,0,0,1,1-.34c1.28,0,1.29,1.07,1.3,1.45s0,.7,0,1S-1204.76,517.62-1204.78,517.93Zm-.78-2c0-.35,0-.85-.51-.84a.51.51,0,0,0-.52.45,6.77,6.77,0,0,0-.05,1.17c0,.38,0,.77,0,1.15a2.12,2.12,0,0,0,.05.59.44.44,0,0,0,.46.34c.33,0,.47-.19.52-.5a10.12,10.12,0,0,0,0-1.32C-1205.55,516.66-1205.55,516.32-1205.56,516Z" transform="translate(1241.63 -442.17)"/><path class="cls-12" d="M-1202.33,519.36a1.37,1.37,0,0,1-.43.06,1.3,1.3,0,0,1-.8-.23,1.44,1.44,0,0,1-.25-1.05c0-.11,0-.23,0-.35v-2.62h-.57v-.57h.59v-1.27h.76v1.27h.7v.57h-.7v3.06a.72.72,0,0,0,.08.4.38.38,0,0,0,.35.15.79.79,0,0,0,.27,0Z" transform="translate(1241.63 -442.17)"/><path class="cls-12" d="M-1199.52,519a1.22,1.22,0,0,1-1,.42,1.18,1.18,0,0,1-1.18-.63,2.91,2.91,0,0,1-.16-1.37c0-.29,0-.58,0-.88s0-.54,0-.81a1.24,1.24,0,0,1,.41-.94,1.33,1.33,0,0,1,.87-.26,1.33,1.33,0,0,1,.91.25,1,1,0,0,1,.29.33,3,3,0,0,1,.16,1.3v.7h-1.91c0,.28,0,.56,0,.83a1.91,1.91,0,0,0,.05.45.53.53,0,0,0,.57.42.48.48,0,0,0,.35-.11c.19-.14.24-.38.23-.83h.71A1.54,1.54,0,0,1-1199.52,519Zm-.43-2.69c0-.18,0-.37,0-.55,0-.37-.17-.66-.59-.66a.5.5,0,0,0-.5.31,2.07,2.07,0,0,0-.1.9v.2h1.2Z" transform="translate(1241.63 -442.17)"/><path class="cls-12" d="M-1196.17,519a1.29,1.29,0,0,1-1.08.4,1.12,1.12,0,0,1-1.14-.58,4.59,4.59,0,0,1-.17-1.66c0-.44,0-.87,0-1.31a1.72,1.72,0,0,1,.37-1,1.28,1.28,0,0,1,1-.31,1.19,1.19,0,0,1,1.11.47,2.3,2.3,0,0,1,.21,1.33h-.72c0-.2,0-.41,0-.62a.75.75,0,0,0-.1-.39.52.52,0,0,0-.48-.23.53.53,0,0,0-.56.49,13.92,13.92,0,0,0,0,1.41c0,.33,0,.66,0,1a1.46,1.46,0,0,0,.08.58.51.51,0,0,0,.5.28.55.55,0,0,0,.57-.56c0-.08,0-.41,0-.69h.72C-1195.87,518.34-1195.91,518.71-1196.17,519Z" transform="translate(1241.63 -442.17)"/><path class="cls-12" d="M-1193.32,519.34v-.57a1,1,0,0,1-1,.65,1.13,1.13,0,0,1-.57-.15,1.11,1.11,0,0,1-.49-1.08,1.25,1.25,0,0,1,.38-1,6.84,6.84,0,0,1,.93-.68,4.75,4.75,0,0,0,.69-.56v-.16c0-.18,0-.67-.58-.67s-.57.49-.57.67,0,.24,0,.36h-.69c0-.13,0-.27,0-.4a1.16,1.16,0,0,1,.24-.84,1.29,1.29,0,0,1,1.07-.39,1.18,1.18,0,0,1,.95.34,1.22,1.22,0,0,1,.24.39,2.79,2.79,0,0,1,.06.81v2.27a2.54,2.54,0,0,0,.08.85.85.85,0,0,0,.14.16Zm0-2.7-.27.24-.23.17a3.28,3.28,0,0,0-.5.42,1.06,1.06,0,0,0-.22.69c0,.08,0,.71.52.7a.67.67,0,0,0,.52-.27,1.27,1.27,0,0,0,.18-.79Z" transform="translate(1241.63 -442.17)"/><path class="cls-12" d="M-1187.8,519.34v-.5c-.08.13-.13.17-.16.22a1.12,1.12,0,0,1-.84.36,1,1,0,0,1-1-1,13.35,13.35,0,0,1-.07-1.45c0-.34,0-.68,0-1a2.46,2.46,0,0,1,.14-.81,1,1,0,0,1,1-.65,1.15,1.15,0,0,1,.71.24,1.39,1.39,0,0,1,.19.21v-2.32h.77v6.69Zm-.06-3.27a1.52,1.52,0,0,0-.16-.72.58.58,0,0,0-.48-.25.59.59,0,0,0-.31.09c-.32.2-.3.69-.31,1s0,.44,0,.66,0,.73,0,1.09a1.56,1.56,0,0,0,.08.54.57.57,0,0,0,.54.36.63.63,0,0,0,.2,0c.14,0,.28-.15.36-.44a6.81,6.81,0,0,0,.1-1.38C-1187.84,516.68-1187.84,516.37-1187.86,516.07Z" transform="translate(1241.63 -442.17)"/><path class="cls-12" d="M-1183.94,519a1.24,1.24,0,0,1-1,.42,1.2,1.2,0,0,1-1.19-.63,2.91,2.91,0,0,1-.16-1.37c0-.29,0-.58,0-.88a7.32,7.32,0,0,1,0-.81,1.24,1.24,0,0,1,.41-.94,1.33,1.33,0,0,1,.87-.26,1.34,1.34,0,0,1,.91.25.88.88,0,0,1,.28.33,3,3,0,0,1,.16,1.3v.7h-1.9c0,.28,0,.56,0,.83a1.91,1.91,0,0,0,0,.45.53.53,0,0,0,.57.42.49.49,0,0,0,.35-.11c.19-.14.23-.38.22-.83h.71A1.58,1.58,0,0,1-1183.94,519Zm-.44-2.69c0-.18,0-.37,0-.55,0-.37-.17-.66-.58-.66a.5.5,0,0,0-.5.31,2.07,2.07,0,0,0-.1.9v.2h1.19Z" transform="translate(1241.63 -442.17)"/><path class="cls-2" d="M-1226,533a10.19,10.19,0,0,1-.08,1.34,2.78,2.78,0,0,1-1.83,2.41,5,5,0,0,1-1.71.27,3.59,3.59,0,0,1-2.35-.68,4.22,4.22,0,0,1-.73-.79c-.59-.91-.66-2-.66-4.2v-2.49c0-.87,0-1.73,0-2.61,0-1.19,0-2.88.82-3.93a3.81,3.81,0,0,1,3-1.28,3.5,3.5,0,0,1,2.6,1c.59.62.81,1.41.81,3.12,0,.33,0,.68,0,1h-1.78c0-.55,0-1.12,0-1.69a1.62,1.62,0,0,0-.59-1.49,1.51,1.51,0,0,0-1-.31,1.65,1.65,0,0,0-1.76,1.36,32.94,32.94,0,0,0-.22,5.1c0,1.16,0,2.31.07,3.47a4.49,4.49,0,0,0,.31,2,1.76,1.76,0,0,0,1.56.77,1.6,1.6,0,0,0,1-.33c.73-.55.7-1.78.7-2.57v-1.14h1.81C-1225.95,531.88-1225.95,532.43-1226,533Z" transform="translate(1241.63 -442.17)"/><path class="cls-2" d="M-1220,536.78v-1.32a2.33,2.33,0,0,1-2.28,1.52,2.57,2.57,0,0,1-1.32-.36,2.58,2.58,0,0,1-1.14-2.5,3,3,0,0,1,.88-2.33,14.81,14.81,0,0,1,2.15-1.56,11.12,11.12,0,0,0,1.6-1.32v-.37c0-.4,0-1.54-1.34-1.54s-1.32,1.12-1.32,1.56c0,.28,0,.55,0,.83h-1.61c0-.3,0-.63,0-.94a2.61,2.61,0,0,1,.55-1.93,3,3,0,0,1,2.48-.93,2.87,2.87,0,0,1,2.22.79,2.69,2.69,0,0,1,.55.93,6.8,6.8,0,0,1,.13,1.86v5.28a5.21,5.21,0,0,0,.2,1.95,1.52,1.52,0,0,0,.33.38Zm-.11-6.27c-.19.2-.41.4-.61.58s-.35.26-.55.39a6.58,6.58,0,0,0-1.14,1,2.41,2.41,0,0,0-.53,1.6c0,.18-.07,1.65,1.21,1.63a1.51,1.51,0,0,0,1.21-.64,2.94,2.94,0,0,0,.41-1.82Z" transform="translate(1241.63 -442.17)"/><path class="cls-2" d="M-1210,533.5a5.75,5.75,0,0,1-.35,2.14,2.36,2.36,0,0,1-2.22,1.34,2.79,2.79,0,0,1-2.22-1.17v1h-1.65V521.26h1.74v5.41a3.36,3.36,0,0,1,.4-.42,2.53,2.53,0,0,1,1.75-.66,2.35,2.35,0,0,1,2.25,1.36,10.42,10.42,0,0,1,.35,3.28C-1209.91,531.33-1209.91,532.4-1210,533.5Zm-1.75-3.84c0-.44,0-.88-.07-1.3,0-.26-.13-1.49-1.32-1.49a1.53,1.53,0,0,0-1.36.92,5.35,5.35,0,0,0-.2,2.2v2.5a5.71,5.71,0,0,0,.24,2.33,1.7,1.7,0,0,0,1.41.79,1.11,1.11,0,0,0,1.19-1,20.6,20.6,0,0,0,.13-3.08C-1211.69,530.89-1211.69,530.27-1211.71,529.66Z" transform="translate(1241.63 -442.17)"/><path class="cls-2" d="M-1204,536.78v-1.32a2.33,2.33,0,0,1-2.28,1.52,2.57,2.57,0,0,1-1.32-.36,2.58,2.58,0,0,1-1.14-2.5,3,3,0,0,1,.87-2.33,15.66,15.66,0,0,1,2.16-1.56,11.12,11.12,0,0,0,1.6-1.32v-.37c0-.4,0-1.54-1.34-1.54s-1.32,1.12-1.32,1.56c0,.28,0,.55,0,.83h-1.61c0-.3,0-.63,0-.94a2.65,2.65,0,0,1,.54-1.93,3,3,0,0,1,2.49-.93,2.89,2.89,0,0,1,2.22.79,2.69,2.69,0,0,1,.55.93,6.8,6.8,0,0,1,.13,1.86v5.28a5.21,5.21,0,0,0,.2,1.95,1.52,1.52,0,0,0,.33.38Zm-.11-6.27-.61.58c-.18.13-.35.26-.55.39a6.58,6.58,0,0,0-1.14,1,2.41,2.41,0,0,0-.53,1.6c0,.18-.07,1.65,1.21,1.63a1.47,1.47,0,0,0,1.2-.64,2.88,2.88,0,0,0,.42-1.82Z" transform="translate(1241.63 -442.17)"/><path class="cls-2" d="M-1200.4,536.78V521.26h1.78v15.52Z" transform="translate(1241.63 -442.17)"/><path class="cls-2" d="M-1196.73,536.78V521.26h1.78v15.52Z" transform="translate(1241.63 -442.17)"/><path class="cls-2" d="M-1193,523.86v-2.27h1.74v2.27Zm0,12.92v-11h1.74v11Z" transform="translate(1241.63 -442.17)"/><path class="cls-2" d="M-1185.48,536.82a2.77,2.77,0,0,1-1,.16,3,3,0,0,1-1.86-.55,3.36,3.36,0,0,1-.58-2.42c0-.26,0-.55,0-.81v-6.09h-1.32v-1.32h1.36v-2.94h1.76v2.94h1.62v1.32h-1.62v7.1a1.52,1.52,0,0,0,.2.92c.13.2.3.35.81.35a1.83,1.83,0,0,0,.61-.09Z" transform="translate(1241.63 -442.17)"/><path class="cls-2" d="M-1178.36,533.5a6.19,6.19,0,0,1-.11,1.23c-.17,1-.72,2.25-3,2.25a2.84,2.84,0,0,1-2.59-1.21,5.05,5.05,0,0,1-.46-2.53v-1.43c0-1,0-1.91,0-2.86a3.77,3.77,0,0,1,.79-2.57,3.08,3.08,0,0,1,2.35-.79c3,0,3,2.49,3,3.39s0,1.6,0,2.41S-1178.31,532.8-1178.36,533.5Zm-1.8-4.55c0-.79-.07-2-1.19-1.93a1.2,1.2,0,0,0-1.21,1,16.84,16.84,0,0,0-.11,2.73c0,.88,0,1.78,0,2.66a5.18,5.18,0,0,0,.11,1.38,1,1,0,0,0,1.07.77c.77,0,1.08-.44,1.21-1.14a24.73,24.73,0,0,0,.11-3.08C-1180.14,530.56-1180.14,529.77-1180.16,529Z" transform="translate(1241.63 -442.17)"/></svg>